<?xml version="1.0" standalone="no"?><!DOCTYPE svg PUBLIC "-//W3C//DTD SVG 1.1//EN" "http://www.w3.org/Graphics/SVG/1.1/DTD/svg11.dtd"><svg class="icon" width="200px" height="200.00px" viewBox="0 0 1024 1024" version="1.1" xmlns="http://www.w3.org/2000/svg"><path d="M336.457143 336.457143m-336.457143 0a336.457143 336.457143 0 1 0 672.914286 0 336.457143 336.457143 0 1 0-672.914286 0Z" fill="#8CF6FB" /><path d="M343.771429 468.114286h-219.428572C55.588571 468.114286 0 412.525714 0 343.771429v-219.428572C0 55.588571 55.588571 0 124.342857 0h219.428572C412.525714 0 468.114286 55.588571 468.114286 124.342857v219.428572c0 68.754286-55.588571 124.342857-124.342857 124.342857zM124.342857 73.142857C96.548571 73.142857 73.142857 96.548571 73.142857 124.342857v219.428572C73.142857 371.565714 96.548571 394.971429 124.342857 394.971429h219.428572c27.794286 0 51.2-23.405714 51.2-51.2v-219.428572C394.971429 96.548571 371.565714 73.142857 343.771429 73.142857h-219.428572z m775.314286 394.971429h-219.428572c-68.754286 0-124.342857-55.588571-124.342857-124.342857v-219.428572C555.885714 55.588571 611.474286 0 680.228571 0h219.428572C968.411429 0 1024 55.588571 1024 124.342857v219.428572c0 68.754286-55.588571 124.342857-124.342857 124.342857z m-219.428572-394.971429C652.434286 73.142857 629.028571 96.548571 629.028571 124.342857v219.428572c0 27.794286 23.405714 51.2 51.2 51.2h219.428572c27.794286 0 51.2-23.405714 51.2-51.2v-219.428572C950.857143 96.548571 927.451429 73.142857 899.657143 73.142857h-219.428572z m-336.457142 950.857143h-219.428572C55.588571 1024 0 968.411429 0 899.657143v-219.428572C0 611.474286 55.588571 555.885714 124.342857 555.885714h219.428572c68.754286 0 124.342857 55.588571 124.342857 124.342857v219.428572c0 68.754286-55.588571 124.342857-124.342857 124.342857z m-219.428572-394.971429C96.548571 629.028571 73.142857 652.434286 73.142857 680.228571v219.428572C73.142857 927.451429 96.548571 950.857143 124.342857 950.857143h219.428572c27.794286 0 51.2-23.405714 51.2-51.2v-219.428572c0-27.794286-23.405714-51.2-51.2-51.2h-219.428572z" fill="#3C2DCB" /><path d="M789.942857 1024c-128.731429 0-234.057143-105.325714-234.057143-234.057143s105.325714-234.057143 234.057143-234.057143 234.057143 105.325714 234.057143 234.057143-105.325714 234.057143-234.057143 234.057143z m0-394.971429c-89.234286 0-160.914286 71.68-160.914286 160.914286s71.68 160.914286 160.914286 160.914286 160.914286-71.68 160.914286-160.914286-71.68-160.914286-160.914286-160.914286z" fill="#D098FF" /></svg>