<?xml version="1.0" standalone="no"?><!DOCTYPE svg PUBLIC "-//W3C//DTD SVG 1.1//EN" "http://www.w3.org/Graphics/SVG/1.1/DTD/svg11.dtd"><svg class="icon" width="200px" height="200.00px" viewBox="0 0 1024 1024" version="1.1" xmlns="http://www.w3.org/2000/svg"><path d="M401.094763 351.522388m-351.522388 0a351.522388 351.522388 0 1 0 703.044776 0 351.522388 351.522388 0 1 0-703.044776 0Z" fill="#8CF6FB" /><path d="M966.5873 565.492537c0 253.707463-204.8 458.507463-458.507462 458.507463S49.572375 819.2 49.572375 565.492537 255.900733 106.985075 508.079838 106.985075s458.507463 204.8 458.507462 458.507462z m-458.507462-382.089552c-210.913433 0-382.089552 171.176119-382.089553 382.089552s171.176119 382.089552 382.089553 382.089553 382.089552-171.176119 382.089552-382.089553-171.176119-382.089552-382.089552-382.089552z m55.020895 479.904478l-168.119403 84.059701c-18.340299 10.698507-41.265672 4.585075-51.964179-13.755224-10.698507-18.340299-4.585075-41.265672 13.755224-51.964179l151.307463-74.889552V420.298507c0-21.397015 16.81194-38.208955 38.208955-38.208955s38.208955 16.81194 38.208955 38.208955v198.686568c0 4.585075-1.528358 9.170149-3.056716 13.755224 0 12.226866-7.641791 24.453731-18.340299 30.567164z" fill="#3C2DCB" /><path d="M971.172375 203.271642c-15.283582 15.283582-39.737313 15.283582-55.020896 0-56.549254-55.020896-123.797015-99.343284-198.686567-128.38209-19.868657-7.641791-29.038806-29.038806-22.925373-48.907462v-1.528359c9.170149-19.868657 30.567164-29.038806 51.964179-21.397015 84.059701 33.623881 160.477612 82.531343 224.668657 145.19403 13.755224 15.283582 15.283582 38.208955 0 55.020896 0-1.528358 0-1.528358 0 0z m-670.949254-122.268657c-71.832836 30.567164-137.552239 74.889552-192.573134 129.910448-15.283582 15.283582-39.737313 15.283582-53.492537 0-15.283582-15.283582-15.283582-39.737313 0-55.020896C116.820136 93.229851 190.18133 42.79403 272.712673 9.170149c19.868657-7.641791 42.79403 3.056716 50.435821 22.925373 6.113433 19.868657-3.056716 41.265672-22.925373 48.907463z" fill="#D098FF" /></svg>