<?xml version="1.0" standalone="no"?><!DOCTYPE svg PUBLIC "-//W3C//DTD SVG 1.1//EN" "http://www.w3.org/Graphics/SVG/1.1/DTD/svg11.dtd"><svg class="icon" width="200px" height="200.00px" viewBox="0 0 1024 1024" version="1.1" xmlns="http://www.w3.org/2000/svg"><path d="M391.898105 343.824818m-343.824818 0a343.824818 343.824818 0 1 0 687.649635 0 343.824818 343.824818 0 1 0-687.649635 0Z" fill="#8CF6FB" /><path d="M906.14044 140.519708L288.750659 756.414599V986.627737c0 20.928467-16.443796 37.372263-37.372263 37.372263s-37.372263-16.443796-37.372262-37.372263V736.981022c0-14.948905 10.464234-29.89781 23.918248-34.382482L859.798834 80.724088s29.89781-23.918248 53.816059 1.49489c23.918248 25.413139-7.474453 58.30073-7.474453 58.30073z" fill="#D098FF" /><path d="M976.400294 106.137226l-1.49489 2.989781-267.585402 769.868613c-7.474453 26.908029-28.40292 47.836496-55.310949 55.310949-28.40292 7.474453-59.79562 0-80.724087-20.928467l-142.014599-142.014598c-14.948905-14.948905-14.948905-38.867153 0-52.321168s38.867153-14.948905 52.321168 0l142.014599 142.014598c1.494891 2.989781 4.484672 2.989781 7.474452 2.989781 1.494891 0 2.989781-1.494891 2.989781-2.989781l1.494891-2.989781 239.182482-686.154744s23.918248-34.382482 11.959124-56.80584c-8.969343-16.443796-26.908029-23.918248-43.351825-17.938686L122.817813 346.814599c-1.494891 0-2.989781 1.494891-2.989781 2.989781-1.494891 2.989781 0 5.979562 2.989781 7.474452l150.983941 152.478832c13.454015 14.948905 13.454015 38.867153-1.49489 52.321168-14.948905 13.454015-35.877372 13.454015-50.826278 0L69.001754 411.094891C48.073287 390.166423 39.103944 358.773723 48.073287 330.370803c7.474453-26.908029 28.40292-47.836496 55.310949-55.310949L876.24263 5.979562c44.846715-10.464234 89.693431 16.443796 100.157664 61.290511 2.989781 11.959124 2.989781 25.413139 0 38.867153z" fill="#3C2DCB" /></svg>