<?xml version="1.0" standalone="no"?><!DOCTYPE svg PUBLIC "-//W3C//DTD SVG 1.1//EN" "http://www.w3.org/Graphics/SVG/1.1/DTD/svg11.dtd"><svg class="icon" width="200px" height="178.86px" viewBox="0 0 1145 1024" version="1.1" xmlns="http://www.w3.org/2000/svg"><path d="M356.848485 356.848485m-356.848485 0a356.848485 356.848485 0 1 0 713.69697 0 356.848485 356.848485 0 1 0-713.69697 0Z" fill="#8CF6FB" /><path d="M822.30303 93.090909c65.163636 1.551515 125.672727 27.927273 172.218182 74.472727 89.987879 89.987879 99.29697 228.072727 20.169697 307.2L572.509091 915.393939 131.878788 473.212121c-79.127273-79.127273-69.818182-217.212121 20.169697-307.2 44.993939-46.545455 107.054545-72.921212 172.218182-74.472727 51.2 0 99.29697 18.618182 134.981818 54.30303l60.509091 60.509091 54.30303 54.30303 54.30303-54.30303 60.509091-60.509091C723.006061 111.709091 772.654545 91.539394 822.30303 93.090909m0-77.575757c-71.369697-1.551515-139.636364 26.375758-189.284848 76.024242l-60.509091 60.509091L512 91.539394C460.8 41.890909 392.533333 13.963636 322.715152 15.515152c-83.781818 1.551515-166.012121 35.684848-224.969697 96.193939C-23.272727 232.727273-32.581818 418.909091 77.575758 527.515152l494.933333 496.484848 496.484848-496.484848c108.606061-110.157576 100.848485-296.339394-20.169697-415.806061C989.866667 51.2 907.636364 17.066667 822.30303 15.515152z" fill="#3C2DCB" /><path d="M690.424242 558.545455H620.606061v85.333333c0 21.721212-17.066667 38.787879-38.787879 38.787879S543.030303 665.6 543.030303 643.878788V558.545455h-85.333333c-21.721212 0-38.787879-17.066667-38.787879-38.787879s17.066667-38.787879 38.787879-38.787879H543.030303v-69.818182c0-21.721212 17.066667-38.787879 38.787879-38.787879s38.787879 17.066667 38.787879 38.787879V480.969697h69.818181c21.721212 0 38.787879 17.066667 38.787879 38.787879S712.145455 558.545455 690.424242 558.545455z" fill="#D098FF" /></svg>