<?xml version="1.0" standalone="no"?><!DOCTYPE svg PUBLIC "-//W3C//DTD SVG 1.1//EN" "http://www.w3.org/Graphics/SVG/1.1/DTD/svg11.dtd"><svg class="icon" width="200px" height="200.00px" viewBox="0 0 1024 1024" version="1.1" xmlns="http://www.w3.org/2000/svg"><path d="M513.67 753.89a39.52 39.52 0 0 1-19.38-5.06l-348-179.69-0.29-0.14a41.31 41.31 0 0 1-20.53-35.84v-37a13.82 13.82 0 1 1 27.64 0v37a13.65 13.65 0 0 0 6.42 11.74l348 179.65 0.26 0.15a11.8 11.8 0 0 0 11.87 0l0.54-0.29 346.31-179.5a13.65 13.65 0 0 0 6.4-11.73v-37a13.82 13.82 0 1 1 27.64 0v37A41.28 41.28 0 0 1 880.08 569l-0.54 0.3L533.1 748.8a39.55 39.55 0 0 1-19.43 5.09z" fill="#3585F9" /><path d="M513.67 899.64a39.51 39.51 0 0 1-19.38-5l-348-179.69-0.26-0.15a41.32 41.32 0 0 1-20.53-35.84v-37a13.82 13.82 0 0 1 27.64 0v37a13.64 13.64 0 0 0 6.43 11.74l348 179.65 0.26 0.15a11.8 11.8 0 0 0 11.87 0l0.54-0.29 346.27-179.55a13.63 13.63 0 0 0 6.4-11.72v-37a13.82 13.82 0 1 1 27.64 0v37a41.29 41.29 0 0 1-20.47 35.8l-0.54 0.3L533.1 894.56a39.54 39.54 0 0 1-19.43 5.08z" fill="#3585F9" /><path d="M506.87 583.86a11.78 11.78 0 0 0 12.1 0l0.36-0.2 338.21-185.87-322.17-188.63a36.65 36.65 0 0 0-38.9 0L172.64 398.85l-0.34 0.21-0.69 0.46 335.08 184.24z" fill="#BAD4FF" /><path d="M512.92 603.15a39.54 39.54 0 0 1-19.92-5.36L145.74 406.84l-0.17-0.11a41.56 41.56 0 0 1-1-70.6l0.36-0.22 347.1-203.32a39.27 39.27 0 0 1 41.69 0L881.21 336l0.18 0.12a41.57 41.57 0 0 1-1 70.61l-0.36 0.2L532.8 597.79a39.53 39.53 0 0 1-19.88 5.36zM159.45 382.84l347.24 190.92 0.18 0.1a11.78 11.78 0 0 0 12.1 0l0.36-0.2 347.22-190.82a13.94 13.94 0 0 0 0.29-23.21l-347.4-203.4-0.18-0.12a11.87 11.87 0 0 0-12.69 0l-0.37 0.23-347 203.29a13.94 13.94 0 0 0 0.29 23.21z" fill="#3585F9" /></svg>