<?xml version="1.0" standalone="no"?><!DOCTYPE svg PUBLIC "-//W3C//DTD SVG 1.1//EN" "http://www.w3.org/Graphics/SVG/1.1/DTD/svg11.dtd"><svg class="icon" width="200px" height="200.00px" viewBox="0 0 1024 1024" version="1.1" xmlns="http://www.w3.org/2000/svg"><path d="M887.82 138.58a9.87 9.87 0 0 0 0-1.33 13.48 13.48 0 0 0-1.75-4.7c0-0.09 0-0.19-0.1-0.27-0.19-0.3-0.49-0.46-0.7-0.74a13.19 13.19 0 0 0-2.59-2.74 12.69 12.69 0 0 0-1.55-1 12.2 12.2 0 0 0-1.49-1 11.92 11.92 0 0 0-1.43-0.35 12.62 12.62 0 0 0-5.28-0.55c-0.43 0-0.85 0-1.29 0.12a13.57 13.57 0 0 0-4.24 1.57c-0.15 0.09-0.33 0.09-0.48 0.19l-0.23 0.14-0.14 0.08-725.31 423.14a13.83 13.83 0 0 0 0 23.47l189.83 114.28a13.82 13.82 0 1 0 14.64-23.45l-171-102.53 642.62-371.67-417.7 518.23a13.92 13.92 0 0 0-2.84 8.53c0.54 59.61 1.08 157 0.22 167.42a13.83 13.83 0 0 0 23.39 12.24l128.73-128.75 214.58 74.19a13.82 13.82 0 0 0 18.64-10.83l105.52-690.62a13.12 13.12 0 0 0-0.05-3.07zM757.61 811.13l-206.93-71.25a13.92 13.92 0 0 0-14.74 3.12L425.11 853.85c0.11-24.25 0-64.38-0.62-131.36l427.88-531.55z" fill="#3585F9" /><path d="M444.8 752.77v26a11.51 11.51 0 0 0 19.87 7.9l65.47-69.4a33 33 0 0 1 34.86-8.48l167.77 58.43a11.49 11.49 0 0 0 15.15-9.11l68.28-443.38c1.8-11.66-13-18.14-20.38-8.89L447.29 745.63a11.5 11.5 0 0 0-2.49 7.14z" fill="#BAD4FF" /></svg>