<?xml version="1.0" standalone="no"?><!DOCTYPE svg PUBLIC "-//W3C//DTD SVG 1.1//EN" "http://www.w3.org/Graphics/SVG/1.1/DTD/svg11.dtd"><svg class="icon" width="200px" height="200.00px" viewBox="0 0 1024 1024" version="1.1" xmlns="http://www.w3.org/2000/svg"><path d="M928 898.272H592.096l-15.36-459.328 6.912 4.608c0.192 24.8 15.488 46.496 25.536 60.64 8.928 12.608 21.664 27.936 34.048 40.96l91.904 96.608c22.016 23.136 51.104 36.384 79.744 36.384 23.68 0 45.696-9.28 61.984-26.144 16.416-16.96 24.928-39.424 24-63.232-1.088-28.576-15.328-57.024-39.136-78.112l-99.68-88.448c-25.888-22.944-67.072-47.424-105.12-47.424-16.032 0-30.336 4.384-42.144 12.64l-42.112-28.096 34.912-20.96c2.176 0.192 4.288 0.608 6.528 0.608 47.264 0 96.8-39.424 115.936-56.384l99.648-88.448c23.776-21.088 38.048-49.536 39.168-78.08a85.504 85.504 0 0 0-23.968-63.264c-36.096-37.344-101.6-32-141.792 10.24l-91.872 96.576c-12.416 13.056-27.2 30.56-37.632 44.608a202.368 202.368 0 0 0-18.752 29.376c-4.96 9.92-17.664 36.256-4.64 64.576l-36.48 21.888-59.584-39.744c7.712-48.992-41.44-100.896-60.288-120.704L301.984 63.04C261.792 20.832 196.256 15.456 160.192 52.8a85.536 85.536 0 0 0-24 63.232c1.12 28.544 15.36 56.992 39.136 78.08L275.04 282.56c42.56 37.728 78.4 56.064 109.6 56.064 11.136 0 21.44-2.624 30.816-7.2l37.536 25.024-57.664 34.624a69.536 69.536 0 0 0-50.048-20.832c-29.792 0-62.272 16.512-102.24 51.968L143.36 510.624c-23.776 21.088-38.048 49.6-39.136 78.144a85.312 85.312 0 0 0 24 63.168 85.28 85.28 0 0 0 61.984 26.176c28.672 0 57.728-13.248 79.776-36.384l91.872-96.608c35.264-37.056 49.632-67.36 53.248-91.296l28.928-17.344-20.448 461.792H96a32 32 0 1 0 0 64h832a32 32 0 1 0 0-64zM612.096 262.24c2.592-5.152 6.944-11.84 12.896-19.872 8.864-11.968 22.016-27.488 32.64-38.656l91.872-96.576c15.424-16.192 37.728-21.888 49.344-9.92a21.152 21.152 0 0 1 6.08 16.32c-0.416 10.912-7.168 23.424-17.664 32.704l-99.68 88.448c-26.72 23.712-56.896 40.256-73.44 40.256-0.736 0-3.264-0.032-3.968-0.768-1.12-1.184-1.696-1.952-1.888-2.08 0.128-0.96 0.768-3.744 3.808-9.856z m-294.56-27.552L217.824 146.24c-10.464-9.28-17.216-21.792-17.664-32.672a21.248 21.248 0 0 1 6.08-16.288 21.056 21.056 0 0 1 15.936-6.656c10.912 0 23.712 6.336 33.408 16.544l91.872 96.576c42.528 44.672 46.144 64.576 41.568 69.28-1.024 1.056-1.728 1.632-4.384 1.632-5.184 0-25.312-2.88-67.104-39.968z m-2.08 266.368l-91.872 96.576c-15.424 16.192-37.76 21.984-49.376 9.856a21.056 21.056 0 0 1-6.048-16.256c0.416-10.88 7.2-23.392 17.664-32.704l99.712-88.448c37.472-33.248 55.232-35.84 59.776-35.84 2.08 0 3.264 0.32 5.152 2.272 5.344 5.568-2.048 29.92-35.008 64.544z m503.84 57.44c10.464 9.28 17.216 21.824 17.664 32.704a21.216 21.216 0 0 1-6.08 16.288c-11.616 12.096-33.984 6.304-49.344-9.888l-91.872-96.544a339.008 339.008 0 0 1-28.256-33.888 232.64 232.64 0 0 1-11.072-16.96l7.552-11.328c15.936 0.448 41.632 13.312 61.696 31.168l99.712 88.448z m-310.624-134.784l1.76-2.464v-0.704l1.76 2.784 15.904 474.944H487.68l20.992-474.56z" /></svg>