<?xml version="1.0" standalone="no"?><!DOCTYPE svg PUBLIC "-//W3C//DTD SVG 1.1//EN" "http://www.w3.org/Graphics/SVG/1.1/DTD/svg11.dtd"><svg class="icon" width="200px" height="200.00px" viewBox="0 0 1024 1024" version="1.1" xmlns="http://www.w3.org/2000/svg"><path fill="#a3ccfa" d="M782.933333 746.666667c121.6-32 209.066667-110.933333 234.666667-211.2 12.8-57.6 0-104.533333-4.266667-123.733334-27.733333-108.8-123.733333-187.733333-236.8-198.4-10.666667 0-21.333333-2.133333-29.866666 0-51.2-93.866667-149.333333-151.466667-256-151.466666-142.933333 0-264.533333 104.533333-288 241.066666-113.066667 10.666667-202.666667 106.666667-202.666667 224 0 121.6 100.266667 221.866667 221.866667 221.866667H768m0-66.133333H217.6c-87.466667 0-157.866667-72.533333-157.866667-157.866667 0-87.466667 70.4-160 157.866667-160h4.266667l34.133333 2.133333 2.133333-32c8.533333-119.466667 108.8-211.2 228.266667-211.2 89.6 0 170.666667 53.333333 209.066667 134.4l10.666666 21.333334 23.466667-2.133334c12.8-2.133333 23.466667-2.133333 38.4-2.133333 87.466667 8.533333 157.866667 68.266667 179.2 151.466667 4.266667 12.8 12.8 49.066667 2.133333 91.733333-17.066667 74.666667-74.666667 136.533333-170.666666 162.133333M183.466667 1002.666667c-8.533333 0-17.066667-8.533333-17.066667-17.066667v-136.533333c0-8.533333 8.533333-17.066667 17.066667-17.066667s17.066667 8.533333 17.066666 17.066667v136.533333c0 8.533333-8.533333 17.066667-17.066666 17.066667z"  /><path fill="#a3ccfa" d="M98.133333 917.333333c0-8.533333 8.533333-17.066667 17.066667-17.066666h136.533333c8.533333 0 17.066667 8.533333 17.066667 17.066666s-8.533333 17.066667-17.066667 17.066667H115.2c-10.666667 0-17.066667-8.533333-17.066667-17.066667z"  /><path fill="#a3ccfa" d="M128 981.333333c-6.4-6.4-8.533333-17.066667-2.133333-23.466666l89.6-102.4c6.4-6.4 17.066667-8.533333 23.466666-2.133334 6.4 6.4 8.533333 17.066667 2.133334 23.466667l-89.6 102.4c-6.4 8.533333-17.066667 8.533333-23.466667 2.133333z"  /><path fill="#a3ccfa" d="M125.866667 853.333333c6.4-6.4 17.066667-6.4 23.466666 2.133334l89.6 102.4c6.4 6.4 6.4 17.066667-2.133333 23.466666-6.4 6.4-17.066667 6.4-23.466667-2.133333l-89.6-102.4c-4.266667-6.4-4.266667-17.066667 2.133334-23.466667zM499.2 1002.666667c-8.533333 0-17.066667-8.533333-17.066667-17.066667v-136.533333c0-8.533333 8.533333-17.066667 17.066667-17.066667s17.066667 8.533333 17.066667 17.066667v136.533333c0 8.533333-8.533333 17.066667-17.066667 17.066667z"  /><path fill="#a3ccfa" d="M413.866667 917.333333c0-8.533333 8.533333-17.066667 17.066666-17.066666h136.533334c8.533333 0 17.066667 8.533333 17.066666 17.066666s-8.533333 17.066667-17.066666 17.066667h-136.533334c-10.666667 0-17.066667-8.533333-17.066666-17.066667z"  /><path fill="#a3ccfa" d="M443.733333 981.333333c-6.4-6.4-8.533333-17.066667-2.133333-23.466666l89.6-102.4c6.4-6.4 17.066667-8.533333 23.466667-2.133334 6.4 6.4 8.533333 17.066667 2.133333 23.466667l-89.6 102.4c-6.4 8.533333-17.066667 8.533333-23.466667 2.133333z"  /><path fill="#a3ccfa" d="M441.6 853.333333c6.4-6.4 17.066667-6.4 23.466667 2.133334l89.6 102.4c6.4 6.4 6.4 17.066667-2.133334 23.466666-6.4 6.4-17.066667 6.4-23.466666-2.133333l-89.6-102.4c-4.266667-6.4-4.266667-17.066667 2.133333-23.466667z"  /><path fill="#a3ccfa" d="M326.4 891.733333c-4.266667 0-6.4-2.133333-6.4-6.4V832c0-4.266667 2.133333-6.4 6.4-6.4 4.266667 0 6.4 2.133333 6.4 6.4v53.333333c0 4.266667-4.266667 6.4-6.4 6.4z"  /><path fill="#a3ccfa" d="M292.266667 857.6c0-4.266667 2.133333-6.4 6.4-6.4h53.333333c4.266667 0 6.4 2.133333 6.4 6.4 0 4.266667-2.133333 6.4-6.4 6.4H298.666667c-4.266667 2.133333-6.4-2.133333-6.4-6.4z"  /><path fill="#a3ccfa" d="M302.933333 883.2c-2.133333-2.133333-2.133333-6.4 0-8.533333l34.133334-40.533334c2.133333-2.133333 6.4-2.133333 8.533333 0 2.133333 2.133333 2.133333 6.4 0 8.533334l-34.133333 40.533333c0 2.133333-4.266667 2.133333-8.533334 0z"  /><path fill="#a3ccfa" d="M302.933333 834.133333c2.133333-2.133333 6.4-2.133333 8.533334 0l34.133333 40.533334c2.133333 2.133333 2.133333 6.4 0 8.533333-2.133333 2.133333-6.4 2.133333-8.533333 0l-34.133334-40.533333c-2.133333-2.133333-2.133333-6.4 0-8.533334z"  /><path fill="#a3ccfa" d="M810.666667 1002.666667c-8.533333 0-17.066667-8.533333-17.066667-17.066667v-136.533333c0-8.533333 8.533333-17.066667 17.066667-17.066667s17.066667 8.533333 17.066666 17.066667v136.533333c0 8.533333-8.533333 17.066667-17.066666 17.066667z"  /><path fill="#a3ccfa" d="M725.333333 917.333333c0-8.533333 8.533333-17.066667 17.066667-17.066666h136.533333c8.533333 0 17.066667 8.533333 17.066667 17.066666s-8.533333 17.066667-17.066667 17.066667h-136.533333c-8.533333 0-17.066667-8.533333-17.066667-17.066667z"  /><path fill="#a3ccfa" d="M755.2 981.333333c-6.4-6.4-8.533333-17.066667-2.133333-23.466666l89.6-102.4c6.4-6.4 17.066667-8.533333 23.466666-2.133334 6.4 6.4 8.533333 17.066667 2.133334 23.466667l-89.6 102.4c-6.4 8.533333-17.066667 8.533333-23.466667 2.133333z"  /><path fill="#a3ccfa" d="M755.2 853.333333c6.4-6.4 17.066667-6.4 23.466667 2.133334l89.6 102.4c6.4 6.4 6.4 17.066667-2.133334 23.466666-6.4 6.4-17.066667 6.4-23.466666-2.133333l-89.6-102.4c-6.4-6.4-6.4-17.066667 2.133333-23.466667z"  /><path fill="#a3ccfa" d="M657.066667 998.4c-4.266667 0-6.4-2.133333-6.4-6.4V938.666667c0-4.266667 2.133333-6.4 6.4-6.4 4.266667 0 6.4 2.133333 6.4 6.4v53.333333c0 4.266667-4.266667 6.4-6.4 6.4z"  /><path fill="#a3ccfa" d="M622.933333 964.266667c0-4.266667 2.133333-6.4 6.4-6.4H682.666667c4.266667 0 6.4 2.133333 6.4 6.4 0 4.266667-2.133333 6.4-6.4 6.4h-53.333334c-4.266667 2.133333-6.4-2.133333-6.4-6.4z"  /><path fill="#a3ccfa" d="M633.6 989.866667c-2.133333-2.133333-2.133333-6.4 0-8.533334l34.133333-40.533333c2.133333-2.133333 6.4-2.133333 8.533334 0 2.133333 2.133333 2.133333 6.4 0 8.533333l-34.133334 40.533334c0 2.133333-4.266667 2.133333-8.533333 0z"  /><path fill="#a3ccfa" d="M633.6 940.8c2.133333-2.133333 6.4-2.133333 8.533333 0l34.133334 40.533333c2.133333 2.133333 2.133333 6.4 0 8.533334-2.133333 2.133333-6.4 2.133333-8.533334 0l-34.133333-40.533334c-2.133333-2.133333-2.133333-6.4 0-8.533333z"  /></svg>