<?xml version="1.0" standalone="no"?><!DOCTYPE svg PUBLIC "-//W3C//DTD SVG 1.1//EN" "http://www.w3.org/Graphics/SVG/1.1/DTD/svg11.dtd"><svg class="icon" width="200px" height="200.00px" viewBox="0 0 1024 1024" version="1.1" xmlns="http://www.w3.org/2000/svg"><path fill="#a3ccfa" d="M138.666667 196.266667m-64 0a64 64 0 1 0 128 0 64 64 0 1 0-128 0Z"  /><path fill="#a3ccfa" d="M522.666667 196.266667m-64 0a64 64 0 1 0 128 0 64 64 0 1 0-128 0Z"  /><path fill="#a3ccfa" d="M906.666667 196.266667m-64 0a64 64 0 1 0 128 0 64 64 0 1 0-128 0Z"  /><path fill="#a3ccfa" d="M138.666667 494.933333m-64 0a64 64 0 1 0 128 0 64 64 0 1 0-128 0Z"  /><path fill="#a3ccfa" d="M522.666667 494.933333m-64 0a64 64 0 1 0 128 0 64 64 0 1 0-128 0Z"  /><path fill="#a3ccfa" d="M906.666667 494.933333m-64 0a64 64 0 1 0 128 0 64 64 0 1 0-128 0Z"  /><path fill="#a3ccfa" d="M642.133333 938.666667c-25.6 0-51.2-4.266667-74.666666-10.666667-53.333333-17.066667-98.133333-46.933333-142.933334-76.8-55.466667-36.266667-102.4-68.266667-151.466666-64-68.266667 6.4-119.466667 61.866667-145.066667 110.933333-8.533333 14.933333-27.733333 21.333333-42.666667 12.8s-21.333333-27.733333-12.8-42.666666c42.666667-83.2 117.333333-136.533333 196.266667-145.066667 72.533333-8.533333 134.4 34.133333 194.133333 74.666667 40.533333 27.733333 81.066667 53.333333 125.866667 68.266666 64 19.2 149.333333 17.066667 354.133333-125.866666 14.933333-10.666667 34.133333-6.4 44.8 8.533333s6.4 34.133333-8.533333 44.8C836.266667 893.866667 731.733333 938.666667 642.133333 938.666667z"  /></svg>