<?xml version="1.0" standalone="no"?><!DOCTYPE svg PUBLIC "-//W3C//DTD SVG 1.1//EN" "http://www.w3.org/Graphics/SVG/1.1/DTD/svg11.dtd"><svg class="icon" width="200px" height="200.00px" viewBox="0 0 1024 1024" version="1.1" xmlns="http://www.w3.org/2000/svg"><path fill="#a3ccfa" d="M883.2 394.666667h-576c-17.066667 0-32-14.933333-32-32s14.933333-32 32-32h576c17.066667 0 32 14.933333 32 32 0 19.2-14.933333 32-32 32zM706.133333 567.466667H251.733333c-17.066667 0-32-14.933333-32-32s14.933333-32 32-32h456.533334c17.066667 0 32 14.933333 32 32-2.133333 19.2-14.933333 32-34.133334 32zM629.333333 740.266667H341.333333c-17.066667 0-32-14.933333-32-32s14.933333-32 32-32h288c17.066667 0 32 14.933333 32 32 0 19.2-14.933333 32-32 32zM384 913.066667h-147.2c-17.066667 0-32-14.933333-32-32s14.933333-32 32-32H384c17.066667 0 32 14.933333 32 32 0 19.2-14.933333 32-32 32zM497.066667 224H157.866667c-17.066667 0-32-14.933333-32-32s14.933333-32 32-32h339.2c17.066667 0 32 14.933333 32 32s-14.933333 32-32 32z"  /></svg>