<?xml version="1.0" standalone="no"?><!DOCTYPE svg PUBLIC "-//W3C//DTD SVG 1.1//EN" "http://www.w3.org/Graphics/SVG/1.1/DTD/svg11.dtd"><svg class="icon" width="200px" height="199.42px" viewBox="0 0 1027 1024" version="1.1" xmlns="http://www.w3.org/2000/svg"><path d="M300.8 957.866667c-8.533333 27.733333-36.266667 42.666667-59.733333 36.266666-23.466667-8.533333-36.266667-36.266667-27.733334-64 6.4-21.333333 49.066667-57.6 66.133334-70.4 2.133333-2.133333 8.533333 0 8.533333 2.133334 6.4 21.333333 19.2 74.666667 12.8 96zM742.4 902.4c-8.533333 27.733333-36.266667 42.666667-59.733333 36.266667-23.466667-8.533333-36.266667-36.266667-27.733334-64 6.4-21.333333 49.066667-57.6 66.133334-70.4 2.133333-2.133333 8.533333 0 8.533333 2.133333 6.4 19.2 21.333333 74.666667 12.8 96z" fill="#2D99F4" /><path d="M785.066667 746.666667l2.133333-2.133334c121.6-29.866667 209.066667-110.933333 234.666667-211.2 12.8-57.6 0-104.533333-4.266667-123.733333-27.733333-108.8-123.733333-187.733333-236.8-198.4-10.666667 0-21.333333-2.133333-29.866667 0-51.2-93.866667-149.333333-151.466667-256-151.466667-142.933333 0-264.533333 104.533333-288 241.066667-113.066667 10.666667-202.666667 106.666667-202.666666 224C2.133333 646.4 100.266667 746.666667 224 746.666667H768m0-64H224c-87.466667 0-157.866667-72.533333-157.866667-157.866667 0-87.466667 70.4-160 157.866667-160h4.266667l34.133333 2.133333 2.133333-32c8.533333-119.466667 108.8-211.2 228.266667-211.2 89.6 0 170.666667 53.333333 209.066667 134.4l10.666666 21.333334 23.466667-2.133334c12.8-2.133333 23.466667-2.133333 38.4-2.133333 87.466667 8.533333 157.866667 68.266667 179.2 151.466667 4.266667 12.8 12.8 49.066667 2.133333 91.733333-17.066667 74.666667-78.933333 136.533333-172.8 162.133333" fill="#9EB5C7" /><path d="M514.133333 789.333333L405.333333 902.4c-2.133333 2.133333 0 6.4 2.133334 6.4l49.066666-2.133333c2.133333 0 4.266667 2.133333 4.266667 4.266666l-14.933333 83.2c0 4.266667 4.266667 6.4 6.4 2.133334l110.933333-115.2c2.133333-2.133333 0-6.4-2.133333-6.4l-46.933334 2.133333c-2.133333 0-4.266667-2.133333-4.266666-4.266667l12.8-81.066666c-2.133333-2.133333-6.4-4.266667-8.533334-2.133334zM373.333333 851.2h-40.533333c-6.4 0-10.666667-4.266667-10.666667-10.666667v-40.533333c0-6.4 4.266667-10.666667 10.666667-10.666667h40.533333c6.4 0 10.666667 4.266667 10.666667 10.666667v40.533333c0 6.4-4.266667 10.666667-10.666667 10.666667zM618.666667 992h-42.666667c-6.4 0-10.666667-4.266667-10.666667-10.666667v-42.666666c0-6.4 4.266667-10.666667 10.666667-10.666667h42.666667c6.4 0 10.666667 4.266667 10.666666 10.666667v42.666666c0 6.4-4.266667 10.666667-10.666666 10.666667z" fill="#2D99F4" /></svg>