<?xml version="1.0" standalone="no"?><!DOCTYPE svg PUBLIC "-//W3C//DTD SVG 1.1//EN" "http://www.w3.org/Graphics/SVG/1.1/DTD/svg11.dtd"><svg class="icon" width="200px" height="200.00px" viewBox="0 0 1024 1024" version="1.1" xmlns="http://www.w3.org/2000/svg"><path fill="#a3ccfa" d="M714.666667 394.666667h-576c-17.066667 0-32-12.8-32-32 0-17.066667 14.933333-32 32-32h576c17.066667 0 32 14.933333 32 32 0 19.2-14.933333 32-32 32zM900.266667 394.666667h-59.733334c-17.066667 0-32-14.933333-32-32s14.933333-32 32-32h59.733334c17.066667 0 32 14.933333 32 32 0 19.2-14.933333 32-32 32zM595.2 567.466667H138.666667c-17.066667 0-32-12.8-32-32 0-17.066667 14.933333-32 32-32h456.533333c17.066667 0 32 14.933333 32 32 0 19.2-14.933333 32-32 32zM426.666667 740.266667H138.666667c-17.066667 0-32-14.933333-32-32s14.933333-32 32-32H426.666667c17.066667 0 32 14.933333 32 32 0 19.2-14.933333 32-32 32zM902.4 740.266667H550.4c-17.066667 0-32-14.933333-32-32s14.933333-32 32-32h352c17.066667 0 32 14.933333 32 32 0 19.2-14.933333 32-32 32zM902.4 567.466667h-179.2c-17.066667 0-32-14.933333-32-32s14.933333-32 32-32h179.2c17.066667 0 32 14.933333 32 32s-14.933333 32-32 32zM902.4 910.933333H403.2c-17.066667 0-32-14.933333-32-32s14.933333-32 32-32h499.2c17.066667 0 32 14.933333 32 32 0 19.2-14.933333 32-32 32zM285.866667 913.066667H138.666667c-17.066667 0-32-14.933333-32-32s14.933333-32 32-32h147.2c17.066667 0 32 14.933333 32 32 0 19.2-14.933333 32-32 32zM490.666667 224H138.666667C121.6 224 106.666667 209.066667 106.666667 192s14.933333-32 32-32H490.666667c17.066667 0 32 14.933333 32 32s-14.933333 32-32 32zM902.4 224H605.866667c-17.066667 0-32-14.933333-32-32s14.933333-32 32-32h296.533333c17.066667 0 32 14.933333 32 32s-14.933333 32-32 32z"  /></svg>