<?xml version="1.0" standalone="no"?><!DOCTYPE svg PUBLIC "-//W3C//DTD SVG 1.1//EN" "http://www.w3.org/Graphics/SVG/1.1/DTD/svg11.dtd"><svg class="icon" width="200px" height="200.00px" viewBox="0 0 1024 1024" version="1.1" xmlns="http://www.w3.org/2000/svg"><path fill="#a3ccfa" d="M202.666667 213.333333m-64 0a64 64 0 1 0 128 0 64 64 0 1 0-128 0Z"  /><path fill="#a3ccfa" d="M522.666667 213.333333m-64 0a64 64 0 1 0 128 0 64 64 0 1 0-128 0Z"  /><path fill="#a3ccfa" d="M842.666667 213.333333m-64 0a64 64 0 1 0 128 0 64 64 0 1 0-128 0Z"  /><path fill="#a3ccfa" d="M202.666667 853.333333m-64 0a64 64 0 1 0 128 0 64 64 0 1 0-128 0Z"  /><path fill="#a3ccfa" d="M522.666667 853.333333m-64 0a64 64 0 1 0 128 0 64 64 0 1 0-128 0Z"  /><path fill="#a3ccfa" d="M842.666667 853.333333m-64 0a64 64 0 1 0 128 0 64 64 0 1 0-128 0Z"  /><path fill="#a3ccfa" d="M96 533.333333m-64 0a64 64 0 1 0 128 0 64 64 0 1 0-128 0Z"  /><path fill="#a3ccfa" d="M949.333333 533.333333m-64 0a64 64 0 1 0 128 0 64 64 0 1 0-128 0Z"  /><path fill="#a3ccfa" d="M657.066667 364.8c-55.466667 0-102.4 27.733333-132.266667 68.266667-29.866667-40.533333-78.933333-68.266667-132.266667-68.266667-91.733333 0-164.266667 74.666667-164.266666 164.266667s74.666667 164.266667 164.266666 164.266666c55.466667 0 102.4-27.733333 132.266667-68.266666 29.866667 40.533333 78.933333 68.266667 132.266667 68.266666 91.733333 0 164.266667-74.666667 164.266666-164.266666s-74.666667-164.266667-164.266666-164.266667zM390.4 629.333333c-55.466667 0-100.266667-44.8-100.266667-100.266666s44.8-100.266667 100.266667-100.266667 100.266667 44.8 100.266667 100.266667-44.8 100.266667-100.266667 100.266666z m266.666667 0c-55.466667 0-100.266667-44.8-100.266667-100.266666s44.8-100.266667 100.266667-100.266667 100.266667 44.8 100.266666 100.266667-44.8 100.266667-100.266666 100.266666z"  /></svg>