<?xml version="1.0" standalone="no"?><!DOCTYPE svg PUBLIC "-//W3C//DTD SVG 1.1//EN" "http://www.w3.org/Graphics/SVG/1.1/DTD/svg11.dtd"><svg class="icon" width="200px" height="200.00px" viewBox="0 0 1024 1024" version="1.1" xmlns="http://www.w3.org/2000/svg"><path fill="#a3ccfa" d="M512 394.666667c-230.4 0-480-46.933333-480-153.6 0-104.533333 249.6-153.6 480-153.6s480 46.933333 480 153.6-247.466667 153.6-480 153.6z m0-241.066667c-270.933333 0-416 64-416 89.6 0 25.6 145.066667 89.6 416 89.6s416-64 416-89.6c0-27.733333-145.066667-89.6-416-89.6zM520.533333 968.533333c-70.4 0-130.133333-36.266667-160-66.133333-12.8-12.8-12.8-32 0-44.8 12.8-12.8 32-12.8 44.8 0 10.666667 10.666667 110.933333 102.4 234.666667-2.133333 12.8-10.666667 34.133333-10.666667 44.8 4.266666s10.666667 34.133333-4.266667 44.8c-55.466667 49.066667-108.8 64-160 64zM509.866667 810.666667c-198.4 0-285.866667-104.533333-288-108.8-10.666667-12.8-10.666667-36.266667 4.266666-46.933334 12.8-10.666667 34.133333-6.4 44.8 6.4 4.266667 4.266667 74.666667 85.333333 238.933334 85.333334h2.133333c181.333333 0 247.466667-85.333333 249.6-87.466667 10.666667-12.8 32-17.066667 44.8-6.4 12.8 10.666667 17.066667 34.133333 6.4 46.933333C808.533333 704 725.333333 810.666667 512 810.666667h-2.133333zM512 610.133333C202.666667 610.133333 108.8 469.333333 104.533333 462.933333c-8.533333-14.933333-4.266667-34.133333 10.666667-44.8 14.933333-8.533333 34.133333-4.266667 44.8 8.533334 2.133333 2.133333 83.2 117.333333 354.133333 117.333333 298.666667 0 373.333333-121.6 375.466667-121.6 8.533333-14.933333 27.733333-21.333333 42.666667-12.8s21.333333 27.733333 12.8 42.666667c-6.4 8.533333-91.733333 157.866667-433.066667 157.866666z"  /></svg>