<?xml version="1.0" standalone="no"?><!DOCTYPE svg PUBLIC "-//W3C//DTD SVG 1.1//EN" "http://www.w3.org/Graphics/SVG/1.1/DTD/svg11.dtd"><svg class="icon" width="200px" height="199.80px" viewBox="0 0 1025 1024" version="1.1" xmlns="http://www.w3.org/2000/svg"><path d="M458.666667 925.866667c-12.8 42.666667-55.466667 66.133333-91.733334 55.466666-36.266667-12.8-55.466667-55.466667-42.666666-98.133333 10.666667-34.133333 76.8-87.466667 100.266666-106.666667 4.266667-4.266667 10.666667-2.133333 12.8 4.266667 10.666667 29.866667 32 113.066667 21.333334 145.066667zM714.666667 925.866667c-12.8 42.666667-55.466667 66.133333-91.733334 55.466666-36.266667-12.8-55.466667-55.466667-42.666666-98.133333 10.666667-34.133333 76.8-87.466667 100.266666-106.666667 4.266667-4.266667 10.666667-2.133333 12.8 4.266667 10.666667 29.866667 32 113.066667 21.333334 145.066667z" fill="#2D99F4" /><path d="M785.066667 727.466667c123.733333-29.866667 211.2-110.933333 234.666666-211.2 12.8-57.6 0-104.533333-4.266666-121.6-27.733333-108.8-123.733333-187.733333-236.8-198.4h-29.866667c-51.2-93.866667-149.333333-151.466667-256-151.466667C349.866667 42.666667 228.266667 147.2 202.666667 283.733333 89.6 294.4 0 388.266667 0 505.6 0 627.2 100.266667 725.333333 221.866667 725.333333H768m0-64H221.866667C134.4 661.333333 64 590.933333 64 505.6c0-87.466667 70.4-157.866667 157.866667-157.866667h4.266666l34.133334 2.133334 2.133333-32C273.066667 200.533333 373.333333 106.666667 492.8 106.666667c89.6 0 170.666667 53.333333 209.066667 134.4l10.666666 21.333333 23.466667-2.133333c12.8-2.133333 23.466667-2.133333 38.4-2.133334 87.466667 8.533333 157.866667 68.266667 179.2 151.466667 4.266667 12.8 12.8 49.066667 2.133333 91.733333-17.066667 74.666667-78.933333 134.4-172.8 160" fill="#9EB5C7" /></svg>