<?xml version="1.0" standalone="no"?><!DOCTYPE svg PUBLIC "-//W3C//DTD SVG 1.1//EN" "http://www.w3.org/Graphics/SVG/1.1/DTD/svg11.dtd"><svg class="icon" width="200px" height="200.00px" viewBox="0 0 1024 1024" version="1.1" xmlns="http://www.w3.org/2000/svg"><path fill="#a3ccfa" d="M774.4 834.133333h6.4c121.6-29.866667 213.333333-108.8 236.8-209.066666 12.8-57.6 2.133333-104.533333-2.133333-121.6-27.733333-108.8-121.6-187.733333-236.8-198.4h-29.866667c-51.2-93.866667-149.333333-151.466667-256-151.466667-142.933333 0-264.533333 104.533333-288 241.066667-115.2 6.4-204.8 100.266667-204.8 217.6C0 733.866667 100.266667 832 221.866667 832H746.666667m0-64H221.866667C134.4 768 64 697.6 64 612.266667c0-87.466667 70.4-157.866667 157.866667-157.866667h4.266666l34.133334 2.133333 2.133333-32c8.533333-119.466667 108.8-211.2 228.266667-211.2 89.6 0 170.666667 53.333333 209.066666 134.4l10.666667 21.333334 23.466667-2.133334c12.8-2.133333 23.466667-2.133333 38.4-2.133333 87.466667 8.533333 157.866667 68.266667 179.2 151.466667 4.266667 12.8 12.8 49.066667 2.133333 91.733333-17.066667 74.666667-89.6 134.4-183.466667 160"  /></svg>