<?xml version="1.0" standalone="no"?><!DOCTYPE svg PUBLIC "-//W3C//DTD SVG 1.1//EN" "http://www.w3.org/Graphics/SVG/1.1/DTD/svg11.dtd"><svg class="icon" width="200px" height="200.00px" viewBox="0 0 1024 1024" version="1.1" xmlns="http://www.w3.org/2000/svg"><path fill="#a3ccfa" d="M782.933333 746.666667c121.6-32 209.066667-110.933333 234.666667-211.2 12.8-57.6 0-104.533333-4.266667-123.733334-27.733333-108.8-123.733333-187.733333-236.8-198.4-10.666667 0-21.333333-2.133333-29.866666 0-51.2-93.866667-149.333333-151.466667-256-151.466666-142.933333 0-264.533333 104.533333-288 241.066666-113.066667 10.666667-202.666667 106.666667-202.666667 224 0 121.6 100.266667 221.866667 221.866667 221.866667H768m0-66.133333H217.6c-87.466667 0-157.866667-72.533333-157.866667-157.866667 0-87.466667 70.4-160 157.866667-160h4.266667l34.133333 2.133333 2.133333-32c8.533333-119.466667 108.8-211.2 228.266667-211.2 89.6 0 170.666667 53.333333 209.066667 134.4l10.666666 21.333334 23.466667-2.133334c12.8-2.133333 23.466667-2.133333 38.4-2.133333 87.466667 8.533333 157.866667 68.266667 179.2 151.466667 4.266667 12.8 12.8 49.066667 2.133333 91.733333-17.066667 74.666667-74.666667 136.533333-170.666666 162.133333M262.4 1002.666667c-8.533333 0-17.066667-8.533333-17.066667-17.066667v-136.533333c0-8.533333 8.533333-17.066667 17.066667-17.066667s17.066667 8.533333 17.066667 17.066667v136.533333c0 8.533333-8.533333 17.066667-17.066667 17.066667z"  /><path fill="#a3ccfa" d="M177.066667 917.333333c0-8.533333 8.533333-17.066667 17.066666-17.066666h136.533334c8.533333 0 17.066667 8.533333 17.066666 17.066666s-8.533333 17.066667-17.066666 17.066667H194.133333c-10.666667 0-17.066667-8.533333-17.066666-17.066667z"  /><path fill="#a3ccfa" d="M204.8 981.333333c-6.4-6.4-8.533333-17.066667-2.133333-23.466666l89.6-102.4c6.4-6.4 17.066667-8.533333 23.466666-2.133334 6.4 6.4 8.533333 17.066667 2.133334 23.466667l-89.6 102.4c-4.266667 8.533333-14.933333 8.533333-23.466667 2.133333z"  /><path fill="#a3ccfa" d="M204.8 853.333333c6.4-6.4 17.066667-6.4 23.466667 2.133334l89.6 102.4c6.4 6.4 6.4 17.066667-2.133334 23.466666-6.4 6.4-17.066667 6.4-23.466666-2.133333l-89.6-102.4c-4.266667-6.4-4.266667-17.066667 2.133333-23.466667z"  /><path fill="#a3ccfa" d="M499.2 1002.666667c-8.533333 0-17.066667-8.533333-17.066667-17.066667v-136.533333c0-8.533333 8.533333-17.066667 17.066667-17.066667s17.066667 8.533333 17.066667 17.066667v136.533333c0 8.533333-8.533333 17.066667-17.066667 17.066667z"  /><path fill="#a3ccfa" d="M413.866667 917.333333c0-8.533333 8.533333-17.066667 17.066666-17.066666h136.533334c8.533333 0 17.066667 8.533333 17.066666 17.066666s-8.533333 17.066667-17.066666 17.066667h-136.533334c-10.666667 0-17.066667-8.533333-17.066666-17.066667z"  /><path fill="#a3ccfa" d="M443.733333 981.333333c-6.4-6.4-8.533333-17.066667-2.133333-23.466666l89.6-102.4c6.4-6.4 17.066667-8.533333 23.466667-2.133334 6.4 6.4 8.533333 17.066667 2.133333 23.466667l-89.6 102.4c-6.4 8.533333-17.066667 8.533333-23.466667 2.133333z"  /><path fill="#a3ccfa" d="M441.6 853.333333c6.4-6.4 17.066667-6.4 23.466667 2.133334l89.6 102.4c6.4 6.4 6.4 17.066667-2.133334 23.466666-6.4 6.4-17.066667 6.4-23.466666-2.133333l-89.6-102.4c-4.266667-6.4-4.266667-17.066667 2.133333-23.466667z"  /><path fill="#a3ccfa" d="M736 1002.666667c-8.533333 0-17.066667-8.533333-17.066667-17.066667v-136.533333c0-8.533333 8.533333-17.066667 17.066667-17.066667s17.066667 8.533333 17.066667 17.066667v136.533333c0 8.533333-8.533333 17.066667-17.066667 17.066667z"  /><path fill="#a3ccfa" d="M650.666667 917.333333c0-8.533333 8.533333-17.066667 17.066666-17.066666h136.533334c8.533333 0 17.066667 8.533333 17.066666 17.066666s-8.533333 17.066667-17.066666 17.066667h-136.533334c-10.666667 0-17.066667-8.533333-17.066666-17.066667z"  /><path fill="#a3ccfa" d="M680.533333 981.333333c-6.4-6.4-8.533333-17.066667-2.133333-23.466666L768 853.333333c6.4-6.4 17.066667-8.533333 23.466667-2.133333 6.4 6.4 8.533333 17.066667 2.133333 23.466667L704 979.2c-6.4 8.533333-17.066667 8.533333-23.466667 2.133333z"  /><path fill="#a3ccfa" d="M680.533333 853.333333c6.4-6.4 17.066667-6.4 23.466667 2.133334l89.6 102.4c6.4 6.4 6.4 17.066667-2.133333 23.466666-6.4 6.4-17.066667 6.4-23.466667-2.133333l-89.6-102.4c-6.4-6.4-6.4-17.066667 2.133333-23.466667z"  /></svg>