<?xml version="1.0" standalone="no"?><!DOCTYPE svg PUBLIC "-//W3C//DTD SVG 1.1//EN" "http://www.w3.org/Graphics/SVG/1.1/DTD/svg11.dtd"><svg class="icon" width="200px" height="199.42px" viewBox="0 0 1027 1024" version="1.1" xmlns="http://www.w3.org/2000/svg"><path fill="#a3ccfa" d="M785.066667 746.666667l2.133333-2.133334c121.6-29.866667 209.066667-110.933333 234.666667-211.2 12.8-57.6 0-104.533333-4.266667-123.733333-27.733333-108.8-123.733333-187.733333-236.8-198.4-10.666667 0-21.333333-2.133333-29.866667 0-51.2-93.866667-149.333333-151.466667-256-151.466667-142.933333 0-264.533333 104.533333-288 241.066667-113.066667 10.666667-202.666667 106.666667-202.666666 224C2.133333 646.4 100.266667 746.666667 224 746.666667H768m0-64H224c-87.466667 0-157.866667-72.533333-157.866667-157.866667 0-87.466667 70.4-160 157.866667-160h4.266667l34.133333 2.133333 2.133333-32c8.533333-119.466667 108.8-211.2 228.266667-211.2 89.6 0 170.666667 53.333333 209.066667 134.4l10.666666 21.333334 23.466667-2.133334c12.8-2.133333 23.466667-2.133333 38.4-2.133333 87.466667 8.533333 157.866667 68.266667 179.2 151.466667 4.266667 12.8 12.8 49.066667 2.133333 91.733333-17.066667 74.666667-78.933333 136.533333-172.8 162.133333M514.133333 992c-8.533333 0-17.066667-8.533333-17.066666-17.066667v-136.533333c0-8.533333 8.533333-17.066667 17.066666-17.066667s17.066667 8.533333 17.066667 17.066667v136.533333c0 8.533333-8.533333 17.066667-17.066667 17.066667z"  /><path fill="#a3ccfa" d="M428.8 906.666667c0-8.533333 8.533333-17.066667 17.066667-17.066667h136.533333c8.533333 0 17.066667 8.533333 17.066667 17.066667s-8.533333 17.066667-17.066667 17.066666h-136.533333c-8.533333 0-17.066667-8.533333-17.066667-17.066666z"  /><path fill="#a3ccfa" d="M458.666667 970.666667c-6.4-6.4-8.533333-17.066667-2.133334-23.466667l89.6-102.4c6.4-6.4 17.066667-8.533333 23.466667-2.133333 6.4 6.4 8.533333 17.066667 2.133333 23.466666l-89.6 102.4c-6.4 8.533333-17.066667 8.533333-23.466666 2.133334z"  /><path fill="#a3ccfa" d="M458.666667 842.666667c6.4-6.4 17.066667-6.4 23.466666 2.133333l89.6 102.4c6.4 6.4 6.4 17.066667-2.133333 23.466667-6.4 6.4-17.066667 6.4-23.466667-2.133334l-89.6-102.4c-6.4-6.4-6.4-17.066667 2.133334-23.466666z"  /></svg>