<?xml version="1.0" standalone="no"?><!DOCTYPE svg PUBLIC "-//W3C//DTD SVG 1.1//EN" "http://www.w3.org/Graphics/SVG/1.1/DTD/svg11.dtd"><svg class="icon" width="200px" height="199.42px" viewBox="0 0 1027 1024" version="1.1" xmlns="http://www.w3.org/2000/svg"><path d="M785.066667 746.666667l2.133333-2.133334c121.6-29.866667 209.066667-110.933333 234.666667-211.2 12.8-57.6 0-104.533333-4.266667-123.733333-27.733333-108.8-123.733333-187.733333-236.8-198.4-10.666667 0-21.333333-2.133333-29.866667 0-51.2-93.866667-149.333333-151.466667-256-151.466667-142.933333 0-264.533333 104.533333-288 241.066667-113.066667 10.666667-202.666667 106.666667-202.666666 224C2.133333 646.4 100.266667 746.666667 224 746.666667H768m0-64H224c-87.466667 0-157.866667-72.533333-157.866667-157.866667 0-87.466667 70.4-160 157.866667-160h4.266667l34.133333 2.133333 2.133333-32c8.533333-119.466667 108.8-211.2 228.266667-211.2 89.6 0 170.666667 53.333333 209.066667 134.4l10.666666 21.333334 23.466667-2.133334c12.8-2.133333 23.466667-2.133333 38.4-2.133333 87.466667 8.533333 157.866667 68.266667 179.2 151.466667 4.266667 12.8 12.8 49.066667 2.133333 91.733333-17.066667 74.666667-78.933333 136.533333-172.8 162.133333" fill="#9EB5C7" /><path d="M371.2 947.2c-12.8 42.666667-55.466667 66.133333-91.733333 55.466667-36.266667-12.8-55.466667-55.466667-42.666667-98.133334 10.666667-34.133333 76.8-87.466667 100.266667-106.666666 4.266667-4.266667 10.666667-2.133333 12.8 4.266666 12.8 29.866667 34.133333 110.933333 21.333333 145.066667zM787.2 947.2c-12.8 42.666667-55.466667 66.133333-91.733333 55.466667-36.266667-12.8-55.466667-55.466667-42.666667-98.133334 10.666667-34.133333 76.8-87.466667 100.266667-106.666666 4.266667-4.266667 10.666667-2.133333 12.8 4.266666 12.8 29.866667 34.133333 110.933333 21.333333 145.066667z" fill="#2D99F4" /><path d="M512 1000.533333c-8.533333 0-17.066667-8.533333-17.066667-17.066666v-136.533334c0-8.533333 8.533333-17.066667 17.066667-17.066666s17.066667 8.533333 17.066667 17.066666v136.533334c0 8.533333-6.4 17.066667-17.066667 17.066666z" fill="#9EB5C7" /><path d="M426.666667 915.2c0-8.533333 8.533333-17.066667 17.066666-17.066667h136.533334c8.533333 0 17.066667 8.533333 17.066666 17.066667s-8.533333 17.066667-17.066666 17.066667h-136.533334c-8.533333 0-17.066667-8.533333-17.066666-17.066667z" fill="#9EB5C7" /><path d="M456.533333 979.2c-6.4-6.4-8.533333-17.066667-2.133333-23.466667l89.6-102.4c6.4-6.4 17.066667-8.533333 23.466667-2.133333 6.4 6.4 8.533333 17.066667 2.133333 23.466667l-89.6 102.4c-4.266667 8.533333-14.933333 8.533333-23.466667 2.133333z" fill="#9EB5C7" /><path d="M456.533333 851.2c6.4-6.4 17.066667-6.4 23.466667 2.133333l89.6 102.4c6.4 6.4 6.4 17.066667-2.133333 23.466667-6.4 6.4-17.066667 6.4-23.466667-2.133333L454.4 874.666667c-4.266667-8.533333-4.266667-19.2 2.133333-23.466667z" fill="#9EB5C7" /></svg>