<?xml version="1.0" standalone="no"?><!DOCTYPE svg PUBLIC "-//W3C//DTD SVG 1.1//EN" "http://www.w3.org/Graphics/SVG/1.1/DTD/svg11.dtd"><svg class="icon" width="200px" height="200.00px" viewBox="0 0 1024 1024" version="1.1" xmlns="http://www.w3.org/2000/svg"><path fill="#a3ccfa" d="M776.533333 462.933333H134.4c-17.066667 0-32-14.933333-32-32s14.933333-32 32-32h642.133333c51.2 0 93.866667-42.666667 93.866667-93.866666 0-51.2-42.666667-93.866667-93.866667-93.866667h-85.333333c-17.066667 0-32-14.933333-32-32s14.933333-32 32-32h85.333333c87.466667 0 157.866667 70.4 157.866667 157.866667 0 85.333333-70.4 157.866667-157.866667 157.866666zM802.133333 906.666667H725.333333c-17.066667 0-32-14.933333-32-32s14.933333-32 32-32h76.8c44.8 0 81.066667-36.266667 81.066667-81.066667s-36.266667-81.066667-81.066667-81.066667H448c-17.066667 0-32-14.933333-32-32s14.933333-32 32-32h354.133333c81.066667 0 145.066667 66.133333 145.066667 145.066667s-64 145.066667-145.066667 145.066667zM409.6 842.666667H160c-17.066667 0-32-14.933333-32-32s14.933333-32 32-32h249.6c17.066667 0 32 14.933333 32 32s-14.933333 32-32 32z"  /><path fill="#a3ccfa" d="M580.266667 309.333333H330.666667c-17.066667 0-32-14.933333-32-32s14.933333-32 32-32h249.6c17.066667 0 32 14.933333 32 32s-14.933333 32-32 32z"  /></svg>